<svg width="20" height="20" viewBox="0 0 256 256" fill="none" xmlns="http://www.w3.org/2000/svg">
<path d="M218.127 37.875V75.8062H158.724C144.559 75.8062 126.324 76.0591 126.324 95.5344C126.324 115.29 141.757 118.313 157.693 118.313H218.123V156.244H95.9663L95.9663 119.83H112.66V119.32C99.9648 111.895 92.3823 98.0895 92.9278 83.3925C92.9278 44.9476 118.216 37.8592 151.114 37.8592L218.127 37.875ZM79.2684 199.043C79.2705 211.2 69.417 221.057 57.2599 221.059C45.1027 221.061 35.2457 211.208 35.2435 199.051C35.2413 186.894 45.0948 177.037 57.252 177.035C63.09 177.034 68.6894 179.352 72.8183 183.479C76.9471 187.607 79.2673 193.205 79.2684 199.043ZM218.127 180.077V218.048H95.9663V180.077H218.127ZM0.0180817 18.9647L0.0180817 237.109C-0.0982684 247.419 8.16039 255.873 18.4704 255.999L237.524 255.999C247.839 255.878 256.106 247.424 255.998 237.109L255.998 18.9647C256.126 8.62941 247.859 0.142224 237.524 -0.000854492L18.4546 -0.000854492C8.12421 0.146522 -0.133969 8.6344 0.000614798 18.9647" fill="white"/>
</svg>
